<svg width="156" height="76" viewBox="0 0 156 76" fill="none" xmlns="http://www.w3.org/2000/svg">
<path d="M6.44141 28.2705L14.5422 34.3188L29.7642 27.8089L29.7642 25.7075L6.44141 25.7075L6.44141 28.2705Z" fill="#00112A"/>
<path d="M6.44141 21.229L14.5422 25.8196L29.7642 20.8787L29.7642 19.2837L6.44141 19.2837L6.44141 21.229Z" fill="#00112A"/>
<path d="M6.44141 15.5696L14.5422 19.2835L29.7642 15.2862L29.7642 13.9959L6.44141 13.9959L6.44141 15.5696Z" fill="#00112A"/>
<path d="M145.372 34.9938V25.3934C145.372 22.6976 144.247 21.3496 141.997 21.3496C140.814 21.3496 139.883 21.7472 139.204 22.5424C138.545 23.3182 138.215 24.4625 138.215 25.9753L138.041 22.746C138.118 21.3884 138.632 20.3314 139.583 19.575C140.533 18.8186 141.726 18.4404 143.161 18.4404C145.1 18.4404 146.516 19.0029 147.408 20.1278C148.32 21.2527 148.776 22.7945 148.776 24.7534V34.9938H145.372ZM134.812 34.9938V18.7895H138.215V34.9938H134.812Z" fill="#00112A"/>
<path d="M126.04 35.4305C124.489 35.4305 123.151 35.0717 122.026 34.3541C120.92 33.6171 120.067 32.6086 119.466 31.3285C118.884 30.0485 118.593 28.5648 118.593 26.8774C118.593 25.1707 118.893 23.687 119.495 22.4264C120.096 21.1463 120.949 20.1572 122.055 19.459C123.16 18.7414 124.489 18.3826 126.04 18.3826C127.611 18.3826 128.94 18.7414 130.026 19.459C131.131 20.1572 131.975 21.1463 132.557 22.4264C133.139 23.687 133.43 25.1707 133.43 26.8774C133.43 28.5648 133.139 30.0582 132.557 31.3576C131.975 32.6377 131.131 33.6365 130.026 34.3541C128.94 35.0717 127.611 35.4305 126.04 35.4305ZM126.04 32.5213C127.359 32.5213 128.339 32.0364 128.979 31.0667C129.638 30.0776 129.968 28.6811 129.968 26.8774C129.968 25.0737 129.638 23.6967 128.979 22.7464C128.319 21.7766 127.34 21.2918 126.04 21.2918C124.721 21.2918 123.723 21.7766 123.044 22.7464C122.384 23.7161 122.055 25.0931 122.055 26.8774C122.055 28.7005 122.404 30.097 123.102 31.0667C123.82 32.0364 124.799 32.5213 126.04 32.5213Z" fill="#00112A"/>
<path d="M113.502 34.9943V18.8191H116.906V34.9943H113.502Z" fill="#00112A"/>
<path d="M109.161 34.9941C108.055 34.9941 107.182 34.8583 106.542 34.5868C105.922 34.3153 105.485 33.8692 105.233 33.2486C104.981 32.628 104.855 31.8037 104.855 30.7758V14.6006H108.259V30.543C108.259 31.1055 108.375 31.5031 108.608 31.7358C108.841 31.9685 109.219 32.0849 109.742 32.0849H111.953V34.9941H109.161ZM102.149 21.7281V18.8189H111.953V21.7281H102.149Z" fill="#00112A"/>
<path d="M94.1017 35.4306C92.7635 35.4306 91.5804 35.1785 90.5525 34.6743C89.5439 34.1506 88.7488 33.3554 88.1669 32.2887C87.6045 31.2026 87.3232 29.8256 87.3232 28.1576V18.8191H90.6979V28.6522C90.6979 30.0098 91.0179 30.999 91.658 31.6196C92.3174 32.2208 93.132 32.5214 94.1017 32.5214C95.0908 32.5214 95.8957 32.2111 96.5163 31.5905C97.137 30.9505 97.4473 29.971 97.4473 28.6522V18.8191H100.88V28.1576C100.88 29.845 100.589 31.2317 100.007 32.3178C99.4449 33.3845 98.6497 34.17 97.6218 34.6743C96.6133 35.1785 95.4399 35.4306 94.1017 35.4306Z" fill="#00112A"/>
<path d="M84.7044 34.9937C83.4631 34.9937 82.5128 34.664 81.8534 34.0046C81.194 33.3452 80.8643 32.4045 80.8643 31.1827V12.8838H84.2971V30.9208C84.2971 31.7936 84.7335 32.23 85.6063 32.23H86.8572V34.9937H84.7044Z" fill="#00112A"/>
<path d="M71.846 35.4305C70.2944 35.4305 68.9562 35.0717 67.8313 34.3541C66.7258 33.6171 65.8724 32.6086 65.2712 31.3285C64.6894 30.0485 64.3984 28.5648 64.3984 26.8774C64.3984 25.1707 64.6991 23.687 65.3003 22.4264C65.9015 21.1463 66.7549 20.1572 67.8604 19.459C68.9659 18.7414 70.2944 18.3826 71.846 18.3826C73.417 18.3826 74.7455 18.7414 75.8316 19.459C76.9371 20.1572 77.7808 21.1463 78.3626 22.4264C78.9445 23.687 79.2354 25.1707 79.2354 26.8774C79.2354 28.5648 78.9445 30.0582 78.3626 31.3576C77.7808 32.6377 76.9371 33.6365 75.8316 34.3541C74.7455 35.0717 73.417 35.4305 71.846 35.4305ZM71.846 32.5213C73.1648 32.5213 74.1443 32.0364 74.7843 31.0667C75.4437 30.0776 75.7734 28.6811 75.7734 26.8774C75.7734 25.0737 75.4437 23.6967 74.7843 22.7464C74.1249 21.7766 73.1454 21.2918 71.846 21.2918C70.5272 21.2918 69.5283 21.7766 68.8495 22.7464C68.1901 23.7161 67.8604 25.0931 67.8604 26.8774C67.8604 28.7005 68.2095 30.097 68.9077 31.0667C69.6253 32.0364 70.6047 32.5213 71.846 32.5213Z" fill="#00112A"/>
<path d="M54.8879 34.9943L49.5059 18.8191H53.1133L57.3607 32.5214H56.6334L60.8518 18.8191H64.4592L59.1062 34.9943H54.8879Z" fill="#00112A"/>
<path d="M37.0117 34.9941V14.6296H49.0849V17.5388H40.6482V32.0558H49.8995V34.9941H37.0117ZM37.1281 25.3937V22.4554H48.2122V25.3937H37.1281Z" fill="#00112A"/>
<path d="M113.502 17.6431V14.6006H116.906V16.4429L113.502 17.6431Z" fill="#00112A"/>
<path d="M81.1092 56.9595V48.5595H84.3852C84.8652 48.5595 85.2732 48.6435 85.6092 48.8115C85.9532 48.9795 86.2172 49.2155 86.4012 49.5195C86.5932 49.8155 86.6892 50.1635 86.6892 50.5635C86.6892 50.9315 86.6092 51.2675 86.4492 51.5715C86.2892 51.8675 86.0692 52.1035 85.7892 52.2795C85.5172 52.4555 85.2012 52.5555 84.8412 52.5795L84.0012 52.2075H84.4092C85.3052 52.2075 85.9652 52.4075 86.3892 52.8075C86.8132 53.2075 87.0252 53.7715 87.0252 54.4995C87.0252 54.9875 86.9212 55.4195 86.7132 55.7955C86.5052 56.1635 86.2052 56.4515 85.8132 56.6595C85.4212 56.8595 84.9492 56.9595 84.3972 56.9595H81.1092ZM82.4292 55.9275H84.1332C84.6292 55.9275 85.0172 55.8035 85.2972 55.5555C85.5772 55.3075 85.7172 54.9235 85.7172 54.4035C85.7172 53.8595 85.5772 53.4795 85.2972 53.2635C85.0172 53.0395 84.6292 52.9275 84.1332 52.9275H82.4292V55.9275ZM82.4292 51.9315H84.1212C84.4812 51.9315 84.7812 51.8395 85.0212 51.6555C85.2612 51.4715 85.3812 51.1595 85.3812 50.7195C85.3812 50.2715 85.2612 49.9715 85.0212 49.8195C84.7812 49.6675 84.4812 49.5915 84.1212 49.5915H82.4292V51.9315ZM87.5731 56.9595L90.4291 48.5595H92.0731L94.8571 56.9595H93.5011L91.1971 49.5915H91.3051L88.9411 56.9595H87.5731ZM89.0971 54.4635V53.3835H93.1531V54.4635H89.0971ZM98.5819 57.1035C97.8539 57.1035 97.2379 56.9195 96.7339 56.5515C96.2379 56.1835 95.8619 55.6755 95.6059 55.0275C95.3579 54.3715 95.2339 53.6115 95.2339 52.7475C95.2339 51.8835 95.3579 51.1275 95.6059 50.4795C95.8619 49.8235 96.2379 49.3115 96.7339 48.9435C97.2379 48.5755 97.8539 48.3915 98.5819 48.3915C99.0859 48.3915 99.5539 48.4755 99.9859 48.6435C100.418 48.8115 100.786 49.1075 101.09 49.5315C101.394 49.9555 101.606 50.5515 101.726 51.3195L100.406 51.5355C100.334 50.8315 100.142 50.3115 99.8299 49.9755C99.5179 49.6315 99.1059 49.4595 98.5939 49.4595C97.8899 49.4595 97.3739 49.7355 97.0459 50.2875C96.7179 50.8395 96.5539 51.6595 96.5539 52.7475C96.5539 53.8355 96.7179 54.6555 97.0459 55.2075C97.3819 55.7515 97.8979 56.0235 98.5939 56.0235C99.0899 56.0235 99.4859 55.8715 99.7819 55.5675C100.086 55.2635 100.29 54.7275 100.394 53.9595L101.702 54.1635C101.598 54.7555 101.446 55.2435 101.246 55.6275C101.046 56.0115 100.81 56.3115 100.538 56.5275C100.274 56.7435 99.9739 56.8915 99.6379 56.9715C99.3019 57.0595 98.9499 57.1035 98.5819 57.1035ZM107.357 56.9595L103.973 52.4475L107.309 48.5595H108.965L105.305 52.7355V52.0995L109.037 56.9595H107.357ZM102.965 56.9595V48.5595H104.285V56.9595H102.965ZM115.505 57.1035C114.769 57.1035 114.145 56.9275 113.633 56.5755C113.129 56.2155 112.745 55.7115 112.481 55.0635C112.217 54.4075 112.085 53.6355 112.085 52.7475C112.085 51.8515 112.217 51.0795 112.481 50.4315C112.745 49.7835 113.129 49.2835 113.633 48.9315C114.145 48.5715 114.769 48.3915 115.505 48.3915C116.233 48.3915 116.837 48.5715 117.317 48.9315C117.805 49.2835 118.169 49.7835 118.409 50.4315C118.657 51.0795 118.781 51.8515 118.781 52.7475C118.781 53.6355 118.657 54.4075 118.409 55.0635C118.169 55.7115 117.805 56.2155 117.317 56.5755C116.837 56.9275 116.233 57.1035 115.505 57.1035ZM115.505 56.0235C116.185 56.0235 116.677 55.7515 116.981 55.2075C117.293 54.6555 117.449 53.8355 117.449 52.7475C117.449 51.6515 117.293 50.8315 116.981 50.2875C116.677 49.7355 116.185 49.4595 115.505 49.4595C114.777 49.4595 114.249 49.7355 113.921 50.2875C113.593 50.8315 113.429 51.6515 113.429 52.7475C113.429 53.8435 113.593 54.6635 113.921 55.2075C114.257 55.7515 114.785 56.0235 115.505 56.0235ZM120.262 56.9595V48.5595H125.266V49.6275H121.582V56.9595H120.262ZM120.31 52.9275V51.8595H124.906V52.9275H120.31ZM126.437 56.9595V48.5595H131.441V49.6275H127.757V56.9595H126.437ZM126.485 52.9275V51.8595H131.081V52.9275H126.485ZM132.613 56.9595V48.5595H133.933V56.9595H132.613ZM138.754 57.1035C138.026 57.1035 137.41 56.9195 136.906 56.5515C136.41 56.1835 136.034 55.6755 135.778 55.0275C135.53 54.3715 135.406 53.6115 135.406 52.7475C135.406 51.8835 135.53 51.1275 135.778 50.4795C136.034 49.8235 136.41 49.3115 136.906 48.9435C137.41 48.5755 138.026 48.3915 138.754 48.3915C139.258 48.3915 139.726 48.4755 140.158 48.6435C140.59 48.8115 140.958 49.1075 141.262 49.5315C141.566 49.9555 141.778 50.5515 141.898 51.3195L140.578 51.5355C140.506 50.8315 140.314 50.3115 140.002 49.9755C139.69 49.6315 139.278 49.4595 138.766 49.4595C138.062 49.4595 137.546 49.7355 137.218 50.2875C136.89 50.8395 136.726 51.6595 136.726 52.7475C136.726 53.8355 136.89 54.6555 137.218 55.2075C137.554 55.7515 138.07 56.0235 138.766 56.0235C139.262 56.0235 139.658 55.8715 139.954 55.5675C140.258 55.2635 140.462 54.7275 140.566 53.9595L141.874 54.1635C141.77 54.7555 141.618 55.2435 141.418 55.6275C141.218 56.0115 140.982 56.3115 140.71 56.5275C140.446 56.7435 140.146 56.8915 139.81 56.9715C139.474 57.0595 139.122 57.1035 138.754 57.1035ZM143.137 56.9595V48.5595H148.021V49.6275H144.457V55.8795H148.357V56.9595H143.137ZM143.185 52.9155V51.8355H147.661V52.9155H143.185Z" fill="#00112A"/>
</svg>
