<svg width="114" height="18" viewBox="0 0 114 18" fill="none" xmlns="http://www.w3.org/2000/svg">
<path d="M-7.15527e-07 12.2837L6.46721 17.1123L18.6197 11.9152L18.6197 10.2376L0 10.2376L-7.15527e-07 12.2837Z" fill="#00112A"/>
<path d="M-5.43084e-07 6.66217L6.46721 10.3271L18.6197 6.38247L18.6197 5.10914L0 5.10914L-5.43084e-07 6.66217Z" fill="#00112A"/>
<path d="M-4.3936e-07 2.144L6.46721 5.10895L18.6197 1.91772L18.6197 0.88758L0 0.887578L-4.3936e-07 2.144Z" fill="#00112A"/>
<path d="M110.913 17.6513V9.98693C110.913 7.8347 110.015 6.75858 108.219 6.75858C107.275 6.75858 106.531 7.076 105.989 7.71083C105.463 8.33018 105.2 9.24371 105.2 10.4514L105.06 7.87341C105.122 6.78955 105.533 5.94569 106.291 5.34183C107.05 4.73797 108.002 4.43604 109.148 4.43604C110.697 4.43604 111.827 4.88506 112.539 5.78311C113.267 6.68117 113.631 7.91212 113.631 9.47597V17.6513H110.913ZM102.482 17.6513V4.71474H105.2V17.6513H102.482Z" fill="#00112A"/>
<path d="M95.4809 18C94.2422 18 93.1738 17.7136 92.2758 17.1407C91.3932 16.5523 90.7119 15.7472 90.2319 14.7252C89.7674 13.7033 89.5352 12.5188 89.5352 11.1717C89.5352 9.80917 89.7752 8.62467 90.2551 7.61824C90.7351 6.59631 91.4164 5.80665 92.299 5.24924C93.1816 4.67634 94.2422 4.38989 95.4809 4.38989C96.7351 4.38989 97.7957 4.67634 98.6628 5.24924C99.5453 5.80665 100.219 6.59631 100.683 7.61824C101.148 8.62467 101.38 9.80917 101.38 11.1717C101.38 12.5188 101.148 13.7111 100.683 14.7485C100.219 15.7704 99.5453 16.5678 98.6628 17.1407C97.7957 17.7136 96.7351 18 95.4809 18ZM95.4809 15.6775C96.5338 15.6775 97.3157 15.2904 97.8267 14.5162C98.3531 13.7265 98.6163 12.6117 98.6163 11.1717C98.6163 9.73176 98.3531 8.63242 97.8267 7.87372C97.3002 7.09953 96.5183 6.71244 95.4809 6.71244C94.428 6.71244 93.6306 7.09953 93.0887 7.87372C92.5622 8.6479 92.299 9.74724 92.299 11.1717C92.299 12.6272 92.5777 13.742 93.1351 14.5162C93.708 15.2904 94.4899 15.6775 95.4809 15.6775Z" fill="#00112A"/>
<path d="M85.4717 17.6517V4.73828H88.1891V17.6517H85.4717Z" fill="#00112A"/>
<path d="M82.0046 17.6517C81.122 17.6517 80.4252 17.5433 79.9143 17.3265C79.4188 17.1097 79.0704 16.7536 78.8691 16.2581C78.6678 15.7627 78.5672 15.1046 78.5672 14.284V1.37061H81.2846V14.0982C81.2846 14.5472 81.3775 14.8646 81.5633 15.0504C81.7491 15.2362 82.051 15.3291 82.4691 15.3291H84.2342V17.6517H82.0046ZM76.4072 7.06085V4.7383H84.2342V7.06085H76.4072Z" fill="#00112A"/>
<path d="M69.9819 18C68.9135 18 67.969 17.7988 67.1483 17.3962C66.3432 16.9781 65.7084 16.3433 65.2439 15.4917C64.7948 14.6246 64.5703 13.5253 64.5703 12.1937V4.73828H67.2645V12.5885C67.2645 13.6724 67.52 14.462 68.0309 14.9575C68.5574 15.4375 69.2077 15.6775 69.9819 15.6775C70.7715 15.6775 71.4141 15.4298 71.9096 14.9343C72.405 14.4233 72.6528 13.6414 72.6528 12.5885V4.73828H75.3934V12.1937C75.3934 13.5407 75.1611 14.6478 74.6966 15.5149C74.2476 16.3665 73.6128 16.9936 72.7921 17.3962C71.987 17.7988 71.0502 18 69.9819 18Z" fill="#00112A"/>
<path d="M62.4808 17.6514C61.4899 17.6514 60.7312 17.3882 60.2047 16.8618C59.6783 16.3353 59.415 15.5844 59.415 14.6089V6.10352e-05H62.1556V14.3999C62.1556 15.0966 62.504 15.445 63.2008 15.445H64.1995V17.6514H62.4808Z" fill="#00112A"/>
<path d="M52.2153 18C50.9766 18 49.9082 17.7136 49.0101 17.1407C48.1276 16.5523 47.4463 15.7472 46.9663 14.7252C46.5018 13.7033 46.2695 12.5188 46.2695 11.1717C46.2695 9.80917 46.5095 8.62467 46.9895 7.61824C47.4695 6.59631 48.1508 5.80665 49.0334 5.24924C49.9159 4.67634 50.9766 4.38989 52.2153 4.38989C53.4694 4.38989 54.5301 4.67634 55.3972 5.24924C56.2797 5.80665 56.9533 6.59631 57.4178 7.61824C57.8823 8.62467 58.1145 9.80917 58.1145 11.1717C58.1145 12.5188 57.8823 13.7111 57.4178 14.7485C56.9533 15.7704 56.2797 16.5678 55.3972 17.1407C54.5301 17.7136 53.4694 18 52.2153 18ZM52.2153 15.6775C53.2681 15.6775 54.0501 15.2904 54.561 14.5162C55.0875 13.7265 55.3507 12.6117 55.3507 11.1717C55.3507 9.73176 55.0875 8.63242 54.561 7.87372C54.0346 7.09953 53.2527 6.71244 52.2153 6.71244C51.1624 6.71244 50.365 7.09953 49.823 7.87372C49.2966 8.6479 49.0334 9.74724 49.0334 11.1717C49.0334 12.6272 49.3121 13.742 49.8695 14.5162C50.4424 15.2904 51.2243 15.6775 52.2153 15.6775Z" fill="#00112A"/>
<path d="M38.6766 17.6517L34.3799 4.73828H37.2598L40.6508 15.6775H40.0701L43.4378 4.73828H46.3178L42.0443 17.6517H38.6766Z" fill="#00112A"/>
<path d="M24.4053 17.6515V1.39368H34.0439V3.71623H27.3085V15.3057H34.6942V17.6515H24.4053ZM24.4982 9.98711V7.64133H33.3471V9.98711H24.4982Z" fill="#00112A"/>
<path d="M85.4717 3.7996V1.37061H88.189V2.84137L85.4717 3.7996Z" fill="#00112A"/>
</svg>
